<?xml version="1.0" standalone="no"?>
<!DOCTYPE svg PUBLIC "-//W3C//DTD SVG 20010904//EN"
 "http://www.w3.org/TR/2001/REC-SVG-20010904/DTD/svg10.dtd">
<svg version="1.0" xmlns="http://www.w3.org/2000/svg"
 width="348.000000pt" height="231.000000pt" viewBox="0 0 348.000000 231.000000"
 preserveAspectRatio="xMidYMid meet">

<g transform="translate(0.000000,231.000000) scale(0.100000,-0.100000)"
fill="#000000" stroke="none">
<path d="M1982 1590 c-51 -27 -159 -94 -240 -148 -81 -54 -152 -102 -159 -106
-7 -3 -1 19 14 51 67 152 78 216 39 234 -43 20 -80 -10 -114 -93 -44 -104 -93
-210 -227 -483 -148 -302 -195 -404 -195 -420 0 -7 9 -24 21 -39 15 -19 30
-26 54 -26 42 0 65 22 65 62 0 17 25 88 56 157 55 121 182 381 187 381 1 0 2
-73 2 -162 0 -134 3 -171 18 -210 25 -65 66 -98 122 -98 63 0 89 13 157 78 57
54 61 56 72 37 6 -11 30 -39 52 -62 37 -39 46 -43 88 -43 162 0 296 239 284
507 -2 54 -9 98 -16 105 -9 9 -12 -1 -12 -48 0 -170 -121 -429 -211 -449 -50
-12 -119 73 -119 147 -1 87 -50 77 -119 -25 -65 -97 -125 -151 -151 -137 -33
18 -55 187 -44 334 l7 91 44 42 c62 59 220 162 358 234 122 64 151 93 125 124
-21 25 -61 17 -158 -35z"/>
<path d="M2276 798 c-25 -35 -20 -73 11 -98 32 -25 69 -20 96 13 22 25 16 75
-10 95 -28 20 -80 15 -97 -10z"/>
</g>
</svg>
