<?xml version="1.0" standalone="no"?>
<svg xmlns:xlink="http://www.w3.org/1999/xlink" id="wave" style="transform:rotate(0deg); transition: 0.3s" viewBox="0 0 1440 490" version="1.1" xmlns="http://www.w3.org/2000/svg"><defs><linearGradient id="sw-gradient-0" x1="0" x2="0" y1="1" y2="0"><stop stop-color="rgba(148, 151, 158, 0.1)" offset="0%"/><stop stop-color="rgba(148, 151, 158, 0.1)" offset="100%"/></linearGradient></defs><path style="transform:translate(0, 0px); opacity:1" fill="url(#sw-gradient-0)" d="M0,98L48,106.2C96,114,192,131,288,187.8C384,245,480,343,576,343C672,343,768,245,864,228.7C960,212,1056,278,1152,269.5C1248,261,1344,180,1440,171.5C1536,163,1632,229,1728,228.7C1824,229,1920,163,2016,130.7C2112,98,2208,98,2304,155.2C2400,212,2496,327,2592,343C2688,359,2784,278,2880,236.8C2976,196,3072,196,3168,196C3264,196,3360,196,3456,212.3C3552,229,3648,261,3744,285.8C3840,310,3936,327,4032,326.7C4128,327,4224,310,4320,253.2C4416,196,4512,98,4608,98C4704,98,4800,196,4896,212.3C4992,229,5088,163,5184,122.5C5280,82,5376,65,5472,122.5C5568,180,5664,310,5760,334.8C5856,359,5952,278,6048,204.2C6144,131,6240,65,6336,98C6432,131,6528,261,6624,318.5C6720,376,6816,359,6864,351.2L6912,343L6912,490L6864,490C6816,490,6720,490,6624,490C6528,490,6432,490,6336,490C6240,490,6144,490,6048,490C5952,490,5856,490,5760,490C5664,490,5568,490,5472,490C5376,490,5280,490,5184,490C5088,490,4992,490,4896,490C4800,490,4704,490,4608,490C4512,490,4416,490,4320,490C4224,490,4128,490,4032,490C3936,490,3840,490,3744,490C3648,490,3552,490,3456,490C3360,490,3264,490,3168,490C3072,490,2976,490,2880,490C2784,490,2688,490,2592,490C2496,490,2400,490,2304,490C2208,490,2112,490,2016,490C1920,490,1824,490,1728,490C1632,490,1536,490,1440,490C1344,490,1248,490,1152,490C1056,490,960,490,864,490C768,490,672,490,576,490C480,490,384,490,288,490C192,490,96,490,48,490L0,490Z"/></svg>